<svg xmlns="http://www.w3.org/2000/svg" version="1.1" xmlns:xlink="http://www.w3.org/1999/xlink" xmlns:svgjs="http://svgjs.dev/svgjs" width="1500" height="1500" viewBox="0 0 1500 1500"><rect width="1500" height="1500" fill="#ffffff"></rect><g transform="matrix(0.6666666666666666,0,0,0.6666666666666666,250.10666666666668,429.58270400000004)"><svg viewBox="0 0 375 240" data-background-color="#0c1d36" preserveAspectRatio="xMidYMid meet" height="960" width="1500" xmlns="http://www.w3.org/2000/svg" xmlns:xlink="http://www.w3.org/1999/xlink"><g id="tight-bounds" transform="matrix(1,0,0,1,-0.03976000000000113,0.156486000000001)"><svg viewBox="0 0 375.07953 239.687028" height="239.687028" width="375.07953"><g><svg></svg></g><g><svg viewBox="0 0 375.07953 239.687028" height="239.687028" width="375.07953"><g transform="matrix(1,0,0,1,-10.22024,-7.512990000000002)"><path d="M10.22 239.687v-232.174h375.08v232.174l-75.316 0 0-5.151h70.165v-221.872h-364.778v221.872h70.165l0 5.151z" fill="#000000" fill-rule="nonzero" stroke="none" stroke-width="1" stroke-linecap="butt" stroke-linejoin="miter" stroke-miterlimit="10" stroke-dasharray="" stroke-dashoffset="0" font-family="none" font-weight="none" font-size="none" text-anchor="none" style="mix-blend-mode: normal" data-fill-palette-color="tertiary"></path><g><path transform="translate(99.8379,242.75589) scale(0.42732,0.42732)" d="M14.38 0h-11.69v-35.55h11.45c3.14 0 5.963 0.713 8.47 2.14 2.507 1.427 4.463 3.437 5.87 6.03 1.407 2.593 2.12 5.503 2.14 8.73v0 1.63c0 3.26-0.69 6.18-2.07 8.76-1.373 2.58-3.31 4.597-5.81 6.05-2.5 1.46-5.287 2.197-8.36 2.21zM14.14-28.93h-2.89v22.34h2.98c2.46 0 4.35-0.877 5.67-2.63 1.32-1.747 1.98-4.347 1.98-7.8v0-1.53c0-3.44-0.66-6.03-1.98-7.77-1.32-1.74-3.24-2.61-5.76-2.61zM50.76-26.61l-0.15 7.64-2.71-0.2c-2.587 0-4.247 0.817-4.98 2.45v0 16.72h-8.23v-26.42h7.72l0.27 3.4c1.38-2.587 3.307-3.88 5.78-3.88v0c0.88 0 1.647 0.097 2.3 0.29zM62.26-26.42v26.42h-8.26v-26.42zM53.52-33.23v0c0-1.173 0.423-2.133 1.27-2.88 0.84-0.747 1.937-1.12 3.29-1.12 1.353 0 2.453 0.373 3.3 1.12 0.847 0.747 1.27 1.707 1.27 2.88 0 1.173-0.423 2.133-1.27 2.88-0.847 0.753-1.947 1.13-3.3 1.13-1.353 0-2.45-0.377-3.29-1.13-0.847-0.747-1.27-1.707-1.27-2.88zM73.75-26.42l4.11 16.63 4.17-16.63h8.67l-8.62 26.42h-8.4l-8.62-26.42zM101.83-26.42v26.42h-8.25v-26.42zM93.09-33.23v0c0-1.173 0.423-2.133 1.27-2.88 0.847-0.747 1.947-1.12 3.3-1.12 1.347 0 2.443 0.373 3.29 1.12 0.847 0.747 1.27 1.707 1.27 2.88 0 1.173-0.423 2.133-1.27 2.88-0.847 0.753-1.943 1.13-3.29 1.13-1.353 0-2.453-0.377-3.3-1.13-0.847-0.747-1.27-1.707-1.27-2.88zM106.74-26.42h7.71l0.27 3.1c1.827-2.387 4.343-3.58 7.55-3.58v0c2.747 0 4.8 0.82 6.16 2.46 1.36 1.647 2.063 4.12 2.11 7.42v0 17.02h-8.25v-16.67c0-1.34-0.27-2.323-0.81-2.95-0.533-0.627-1.51-0.94-2.93-0.94v0c-1.607 0-2.8 0.637-3.58 1.91v0 18.65h-8.23zM134.13-13.11v-0.29c0-2.673 0.44-5.033 1.32-7.08 0.88-2.053 2.14-3.637 3.78-4.75 1.647-1.113 3.56-1.67 5.74-1.67v0c2.753 0 4.903 0.927 6.45 2.78v0l0.29-2.3h7.47v25.42c0 2.327-0.54 4.35-1.62 6.07-1.087 1.713-2.653 3.03-4.7 3.95-2.053 0.92-4.43 1.38-7.13 1.38v0c-1.94 0-3.817-0.367-5.63-1.1-1.813-0.733-3.2-1.683-4.16-2.85v0l3.44-4.84c1.527 1.807 3.543 2.71 6.05 2.71v0c3.647 0 5.47-1.87 5.47-5.61v0-0.83c-1.573 1.74-3.567 2.61-5.98 2.61v0c-3.22 0-5.823-1.233-7.81-3.7-1.987-2.467-2.98-5.767-2.98-9.9zM142.38-12.89v0c0 2.167 0.407 3.88 1.22 5.14 0.813 1.26 1.953 1.89 3.42 1.89v0c1.773 0 3.067-0.593 3.88-1.78v0-11.11c-0.793-1.207-2.07-1.81-3.83-1.81v0c-1.467 0-2.613 0.657-3.44 1.97-0.833 1.307-1.25 3.207-1.25 5.7zM195.02-9.45v0c0-1.253-0.443-2.23-1.33-2.93-0.887-0.7-2.447-1.423-4.68-2.17-2.227-0.747-4.05-1.47-5.47-2.17v0c-4.6-2.267-6.9-5.377-6.9-9.33v0c0-1.967 0.573-3.703 1.72-5.21 1.147-1.507 2.77-2.68 4.87-3.52 2.1-0.84 4.46-1.26 7.08-1.26v0c2.553 0 4.843 0.457 6.87 1.37 2.027 0.913 3.6 2.213 4.72 3.9 1.127 1.68 1.69 3.603 1.69 5.77v0h-8.55c0-1.447-0.443-2.57-1.33-3.37-0.887-0.8-2.087-1.2-3.6-1.2v0c-1.527 0-2.733 0.34-3.62 1.02-0.887 0.673-1.33 1.53-1.33 2.57v0c0 0.913 0.487 1.74 1.46 2.48 0.98 0.74 2.697 1.507 5.15 2.3 2.46 0.787 4.48 1.637 6.06 2.55v0c3.84 2.213 5.76 5.263 5.76 9.15v0c0 3.113-1.173 5.557-3.52 7.33-2.34 1.773-5.553 2.66-9.64 2.66v0c-2.88 0-5.49-0.517-7.83-1.55-2.333-1.033-4.09-2.45-5.27-4.25-1.18-1.8-1.77-3.87-1.77-6.21v0h8.6c0 1.9 0.49 3.303 1.47 4.21 0.987 0.9 2.587 1.35 4.8 1.35v0c1.413 0 2.533-0.303 3.36-0.91 0.82-0.613 1.23-1.473 1.23-2.58zM218.77-5.86v0c1.16 0 2.057-0.313 2.69-0.94 0.633-0.627 0.943-1.5 0.93-2.62v0h7.71c0 2.893-1.037 5.27-3.11 7.13-2.073 1.853-4.747 2.78-8.02 2.78v0c-3.84 0-6.867-1.207-9.08-3.62-2.213-2.407-3.32-5.74-3.32-10v0-0.35c0-2.667 0.49-5.02 1.47-7.06 0.987-2.047 2.407-3.62 4.26-4.72 1.86-1.093 4.06-1.64 6.6-1.64v0c3.433 0 6.16 0.95 8.18 2.85 2.013 1.907 3.02 4.487 3.02 7.74v0h-7.71c0-1.367-0.333-2.417-1-3.15-0.667-0.733-1.563-1.1-2.69-1.1v0c-2.133 0-3.377 1.36-3.73 4.08v0c-0.12 0.86-0.18 2.047-0.18 3.56v0c0 2.653 0.32 4.493 0.96 5.52 0.633 1.027 1.64 1.54 3.02 1.54zM241.63-37.5v13.92c1.753-2.213 3.997-3.32 6.73-3.32v0c2.913 0 5.113 0.86 6.6 2.58 1.48 1.727 2.237 4.277 2.27 7.65v0 16.67h-8.26v-16.48c0-1.4-0.283-2.43-0.85-3.09-0.567-0.66-1.537-0.99-2.91-0.99v0c-1.687 0-2.88 0.537-3.58 1.61v0 18.95h-8.23v-37.5zM260.79-12.06l-0.02-1.39c0-2.64 0.51-4.99 1.53-7.05 1.027-2.053 2.5-3.633 4.42-4.74 1.92-1.107 4.177-1.66 6.77-1.66v0c3.953 0 7.07 1.223 9.35 3.67 2.273 2.447 3.41 5.78 3.41 10v0 0.29c0 4.12-1.143 7.387-3.43 9.8-2.287 2.42-5.38 3.63-9.28 3.63v0c-3.76 0-6.78-1.127-9.06-3.38-2.28-2.253-3.51-5.31-3.69-9.17zM269.02-14.43l-0.03 1.49c0 2.44 0.383 4.23 1.15 5.37 0.767 1.14 1.9 1.71 3.4 1.71v0c2.927 0 4.423-2.253 4.49-6.76v0-0.83c0-4.74-1.513-7.11-4.54-7.11v0c-2.753 0-4.243 2.043-4.47 6.13zM288.87-12.06l-0.03-1.39c0-2.64 0.513-4.99 1.54-7.05 1.027-2.053 2.5-3.633 4.42-4.74 1.92-1.107 4.173-1.66 6.76-1.66v0c3.96 0 7.077 1.223 9.35 3.67 2.28 2.447 3.42 5.78 3.42 10v0 0.29c0 4.12-1.143 7.387-3.43 9.8-2.287 2.42-5.383 3.63-9.29 3.63v0c-3.76 0-6.78-1.127-9.06-3.38-2.273-2.253-3.5-5.31-3.68-9.17zM297.09-14.43l-0.02 1.49c0 2.44 0.383 4.23 1.15 5.37 0.767 1.14 1.897 1.71 3.39 1.71v0c2.933 0 4.43-2.253 4.49-6.76v0-0.83c0-4.74-1.513-7.11-4.54-7.11v0c-2.747 0-4.237 2.043-4.47 6.13zM326.64-37.5v37.5h-8.26v-37.5zM345.53-7.42v0c0-0.7-0.367-1.263-1.1-1.69-0.733-0.42-2.123-0.857-4.17-1.31-2.053-0.46-3.747-1.06-5.08-1.8-1.333-0.74-2.35-1.64-3.05-2.7-0.7-1.053-1.05-2.263-1.05-3.63v0c0-2.427 1-4.427 3-6 2-1.567 4.62-2.35 7.86-2.35v0c3.487 0 6.287 0.787 8.4 2.36 2.12 1.58 3.18 3.657 3.18 6.23v0h-8.26c0-2.113-1.113-3.17-3.34-3.17v0c-0.86 0-1.583 0.24-2.17 0.72-0.587 0.48-0.88 1.077-0.88 1.79v0c0 0.733 0.357 1.327 1.07 1.78 0.72 0.46 1.863 0.837 3.43 1.13 1.573 0.287 2.953 0.637 4.14 1.05v0c3.973 1.367 5.96 3.813 5.96 7.34v0c0 2.413-1.07 4.377-3.21 5.89-2.14 1.513-4.913 2.27-8.32 2.27v0c-2.26 0-4.277-0.407-6.05-1.22-1.773-0.813-3.157-1.92-4.15-3.32-0.993-1.4-1.49-2.873-1.49-4.42v0h7.69c0.033 1.22 0.44 2.11 1.22 2.67 0.78 0.56 1.78 0.84 3 0.84v0c1.127 0 1.97-0.227 2.53-0.68 0.56-0.453 0.84-1.047 0.84-1.78zM379.27-35.55v35.55h-8.54v-35.55zM384.69-26.42h7.72l0.27 3.1c1.82-2.387 4.333-3.58 7.54-3.58v0c2.753 0 4.807 0.82 6.16 2.46 1.36 1.647 2.067 4.12 2.12 7.42v0 17.02h-8.26v-16.67c0-1.34-0.267-2.323-0.8-2.95-0.54-0.627-1.517-0.94-2.93-0.94v0c-1.613 0-2.81 0.637-3.59 1.91v0 18.65h-8.23zM423.12 0h-8.25v-20.7h-3.83v-5.72h3.83v-2.1c0-3.007 0.887-5.34 2.66-7 1.773-1.66 4.263-2.49 7.47-2.49v0c1.173 0 2.46 0.17 3.86 0.51v0l0.02 6.05c-0.5-0.147-1.173-0.22-2.02-0.22v0c-2.493 0-3.74 1.077-3.74 3.23v0 2.02h5.15v5.72h-5.15zM430.15-12.06l-0.02-1.39c0-2.64 0.513-4.99 1.54-7.05 1.02-2.053 2.49-3.633 4.41-4.74 1.92-1.107 4.177-1.66 6.77-1.66v0c3.953 0 7.07 1.223 9.35 3.67 2.28 2.447 3.42 5.78 3.42 10v0 0.29c0 4.12-1.143 7.387-3.43 9.8-2.293 2.42-5.39 3.63-9.29 3.63v0c-3.76 0-6.78-1.127-9.06-3.38-2.28-2.253-3.51-5.31-3.69-9.17zM438.38-14.43l-0.03 1.49c0 2.44 0.383 4.23 1.15 5.37 0.767 1.14 1.9 1.71 3.4 1.71v0c2.927 0 4.423-2.253 4.49-6.76v0-0.83c0-4.74-1.513-7.11-4.54-7.11v0c-2.753 0-4.243 2.043-4.47 6.13z" fill="#000000" fill-rule="nonzero" stroke="none" stroke-width="1" stroke-linecap="butt" stroke-linejoin="miter" stroke-miterlimit="10" stroke-dasharray="" stroke-dashoffset="0" font-family="none" font-weight="none" font-size="none" text-anchor="none" style="mix-blend-mode: normal" data-fill-palette-color="secondary"></path></g></g><g transform="matrix(1,0,0,1,29.33176499999999,57.91096686382169)"><svg viewBox="0 0 316.416 123.86509427235661" height="123.86509427235661" width="316.416"><g><svg viewBox="0 0 444.2445071910821 173.90519999999998" height="123.86509427235661" width="316.416"><g><rect width="7.2313877434503" height="173.90519999999998" x="171.38782173182122" y="0" fill="#000000" opacity="1" stroke-width="0" stroke="transparent" fill-opacity="1" class="rect-qz-0" data-fill-palette-color="primary" rx="1%" id="qz-0" data-palette-color="#f9cc0b"></rect></g><g transform="matrix(1,0,0,1,197.5495438822095,0.43259999999999366)"><svg viewBox="0 0 246.6949633088726 173.04" height="173.04" width="246.6949633088726"><g id="textblocktransform"><svg viewBox="0 0 246.6949633088726 173.04" height="173.04" width="246.6949633088726" id="textblock"><g><svg viewBox="0 0 246.6949633088726 173.04" height="173.04" width="246.6949633088726"><g transform="matrix(1,0,0,1,0,0)"><svg width="246.6949633088726" viewBox="0.44000000000000217 -35.55 120.04 77.03" height="173.04" data-palette-color="#f9cc0b"><svg></svg><svg></svg><g class="wordmark-text-0" data-fill-palette-color="primary" id="text-0"><path d="M26.42 0l-2.91-8.28h-13.77l-2.88 8.28h-6.42l13.43-35.55h5.54l13.45 35.55zM16.63-28l-5.16 14.74h10.31zM52.2 0l-0.15-2.59c-1.74 2.053-4.213 3.08-7.42 3.08v0c-2.867 0-5.037-0.84-6.51-2.52-1.473-1.673-2.21-4.097-2.21-7.27v0-17.12h5.94v17.04c0 3.353 1.39 5.03 4.17 5.03v0c2.88 0 4.827-1.033 5.84-3.1v0-18.97h5.93v26.42zM65.33-32.84h5.93v6.42h4.67v4.4h-4.67v14.74c0 1.013 0.2 1.743 0.6 2.19 0.4 0.447 1.113 0.67 2.14 0.67v0c0.68 0 1.37-0.08 2.07-0.24v0 4.59c-1.347 0.373-2.647 0.56-3.9 0.56v0c-4.56 0-6.84-2.517-6.84-7.55v0-14.96h-4.34v-4.4h4.34zM78.61-13.16v-0.29c0-2.587 0.513-4.92 1.54-7 1.027-2.073 2.467-3.667 4.32-4.78 1.86-1.113 3.993-1.67 6.4-1.67v0c3.567 0 6.46 1.147 8.68 3.44 2.22 2.293 3.42 5.337 3.6 9.13v0l0.02 1.39c0 2.607-0.5 4.933-1.5 6.98-1 2.053-2.43 3.64-4.29 4.76-1.867 1.127-4.02 1.69-6.46 1.69v0c-3.727 0-6.71-1.24-8.95-3.72-2.24-2.487-3.36-5.797-3.36-9.93zM84.55-12.94v0c0 2.72 0.56 4.847 1.68 6.38 1.127 1.54 2.69 2.31 4.69 2.31 2 0 3.557-0.78 4.67-2.34 1.12-1.567 1.68-3.853 1.68-6.86v0c0-2.673-0.577-4.79-1.73-6.35-1.147-1.56-2.703-2.34-4.67-2.34v0c-1.94 0-3.48 0.767-4.62 2.3-1.133 1.54-1.7 3.84-1.7 6.9z" fill="#000000" fill-rule="nonzero" stroke="none" stroke-width="1" stroke-linecap="butt" stroke-linejoin="miter" stroke-miterlimit="10" stroke-dasharray="" stroke-dashoffset="0" font-family="none" font-weight="none" font-size="none" text-anchor="none" style="mix-blend-mode: normal" data-fill-palette-color="primary" opacity="1"></path><path transform="translate(0,40.99)" d="M24.39-20.75v4.88h-14.6v10.94h17.07v4.93h-23.25v-35.55h23.07v4.98h-16.89v9.82zM41.7-4.25v0c1.48 0 2.71-0.43 3.69-1.29 0.973-0.867 1.493-1.933 1.56-3.2v0h5.59c-0.067 1.647-0.58 3.18-1.54 4.6-0.96 1.427-2.263 2.553-3.91 3.38-1.64 0.833-3.413 1.25-5.32 1.25v0c-3.693 0-6.623-1.197-8.79-3.59-2.16-2.393-3.24-5.697-3.24-9.91v0-0.61c0-4.02 1.073-7.24 3.22-9.66 2.147-2.413 5.077-3.62 8.79-3.62v0c3.14 0 5.7 0.913 7.68 2.74 1.973 1.833 3.01 4.24 3.11 7.22v0h-5.59c-0.067-1.513-0.583-2.76-1.55-3.74-0.967-0.973-2.2-1.46-3.7-1.46v0c-1.92 0-3.4 0.693-4.44 2.08-1.047 1.393-1.577 3.507-1.59 6.34v0 0.95c0 2.867 0.517 5.003 1.55 6.41 1.033 1.407 2.527 2.11 4.48 2.11zM55.91-13.16v-0.29c0-2.587 0.513-4.92 1.54-7 1.02-2.073 2.46-3.667 4.32-4.78 1.853-1.113 3.983-1.67 6.39-1.67v0c3.567 0 6.46 1.147 8.68 3.44 2.227 2.293 3.427 5.337 3.6 9.13v0l0.03 1.39c0 2.607-0.5 4.933-1.5 6.98-1 2.053-2.433 3.64-4.3 4.76-1.86 1.127-4.013 1.69-6.46 1.69v0c-3.727 0-6.707-1.24-8.94-3.72-2.24-2.487-3.36-5.797-3.36-9.93zM61.84-12.94v0c0 2.72 0.563 4.847 1.69 6.38 1.12 1.54 2.68 2.31 4.68 2.31 2.007 0 3.567-0.78 4.68-2.34 1.113-1.567 1.67-3.853 1.67-6.86v0c0-2.673-0.573-4.79-1.72-6.35-1.147-1.56-2.707-2.34-4.68-2.34v0c-1.933 0-3.47 0.767-4.61 2.3-1.14 1.54-1.71 3.84-1.71 6.9zM91.8-37.5v37.5h-5.94v-37.5zM109.89 0.49v0c-3.76 0-6.81-1.183-9.15-3.55-2.333-2.373-3.5-5.527-3.5-9.46v0-0.74c0-2.633 0.51-4.987 1.53-7.06 1.013-2.08 2.44-3.697 4.28-4.85 1.84-1.153 3.89-1.73 6.15-1.73v0c3.6 0 6.38 1.147 8.34 3.44 1.96 2.293 2.94 5.54 2.94 9.74v0 2.39h-17.26c0.18 2.18 0.91 3.907 2.19 5.18 1.273 1.267 2.88 1.9 4.82 1.9v0c2.72 0 4.933-1.097 6.64-3.29v0l3.2 3.05c-1.06 1.58-2.473 2.803-4.24 3.67-1.767 0.873-3.747 1.31-5.94 1.31zM109.18-22.14v0c-1.627 0-2.94 0.57-3.94 1.71-1 1.133-1.64 2.72-1.92 4.76v0h11.3v-0.44c-0.127-1.987-0.653-3.49-1.58-4.51-0.927-1.013-2.213-1.52-3.86-1.52z" fill="#000000" fill-rule="nonzero" stroke="none" stroke-width="1" stroke-linecap="butt" stroke-linejoin="miter" stroke-miterlimit="10" stroke-dasharray="" stroke-dashoffset="0" font-family="none" font-weight="none" font-size="none" text-anchor="none" style="mix-blend-mode: normal" data-fill-palette-color="primary" opacity="1"></path></g></svg></g></svg></g></svg></g></svg></g><g transform="matrix(1,0,0,1,0,16.60073372311213)"><svg viewBox="0 0 152.45748732488326 140.70373255377572" height="140.70373255377572" width="152.45748732488326"><g><svg xmlns="http://www.w3.org/2000/svg" xmlns:xlink="http://www.w3.org/1999/xlink" version="1.1" x="0" y="0" viewBox="4.085918276566734 3.7229999999999976 40.02796794749781 36.94200000000001" enable-background="new 0 0 48 48" xml:space="preserve" height="140.70373255377572" width="152.45748732488326" class="icon-icon-0" data-fill-palette-color="accent" id="icon-0"><path fill="#000000" d="M41.802 37.296c-0.004-0.142-0.069-0.273-0.18-0.362-0.111-0.088-0.255-0.127-0.394-0.096-0.052 0.01-5.196 1.034-7.292 1.307-0.262 0.034-0.447 0.273-0.414 0.536 0.043 0.339 0.095 0.997 0.103 1.057 0.187 0.927 1.151 0.927 1.468 0.927l0.288-0.002c0 0 4.392-0.153 4.761-0.164C41.827 40.45 41.809 37.619 41.802 37.296z" data-fill-palette-color="accent"></path><path fill="#000000" d="M6.638 37.296c0.004-0.142 0.069-0.273 0.18-0.362 0.111-0.088 0.255-0.127 0.394-0.096 0.052 0.01 5.196 1.034 7.292 1.307 0.262 0.034 0.447 0.273 0.414 0.536-0.043 0.339-0.095 0.997-0.103 1.057-0.187 0.927-1.151 0.927-1.468 0.927l-0.288-0.002c0 0-4.392-0.153-4.761-0.164C6.612 40.45 6.631 37.619 6.638 37.296z" data-fill-palette-color="accent"></path><g fill="#f9f9f9" data-fill-palette-color="accent"><path fill="#000000" d="M23.995 19.296c2.243 0 13.533-0.098 15.489-2.035l0.204-0.202-2.425-9.455c-0.805-2.503-2.284-3.881-4.167-3.881H14.998c-1.857 0-3.416 1.453-4.175 3.908l-2.455 9.412 0.186 0.201C10.354 19.197 21.732 19.296 23.995 19.296zM26.142 18.274c0.744-1.11 2.139-1.839 3.695-1.839 1.356 0 2.594 0.545 3.387 1.434C31.217 18.082 28.793 18.224 26.142 18.274zM11.784 7.904c0.231-0.746 1.146-3.182 3.214-3.182h18.099c1.906 0 2.833 1.997 3.207 3.158l2.264 8.832c-0.646 0.401-2.133 0.752-4.187 1.021-0.935-1.408-2.652-2.298-4.544-2.298-2.14 0-4.046 1.153-4.85 2.854-0.329 0.003-0.658 0.006-0.992 0.006-8.08 0-13.251-0.767-14.511-1.571L11.784 7.904z" data-fill-palette-color="accent"></path><path fill="#000000" d="M24.05 28.793c0.023 0.003 0.048 0.005 0.071 0.005 0.024 0 0.048-0.002 0.072-0.005 19.306-2.803 19.306-3.717 19.306-4.208 0-0.077-0.018-0.154-0.053-0.224l-2.944-5.898c-0.108-0.218-0.361-0.324-0.59-0.256-3.344 0.997-9.332 1.592-16.021 1.592-6.595 0-12.462-0.595-15.693-1.59-0.232-0.076-0.483 0.035-0.593 0.251l-2.996 5.898c-0.036 0.07-0.055 0.147-0.055 0.227C4.555 25.078 4.555 25.997 24.05 28.793z" data-fill-palette-color="accent"></path><path fill="#000000" d="M17.809 30.634c-0.266-0.05-0.53 0.14-0.573 0.413-0.045 0.272 0.141 0.529 0.413 0.573 3.569 0.58 6.501 1.005 6.501 1.005 0.023 0.003 0.047 0.005 0.071 0.005 0.023 0 0.047-0.002 0.069-0.005 0 0 2.836-0.398 6.314-0.956 0.272-0.044 0.458-0.301 0.415-0.573-0.044-0.273-0.309-0.454-0.573-0.415-3.148 0.506-5.768 0.88-6.225 0.944C23.756 31.557 21.045 31.159 17.809 30.634z" data-fill-palette-color="accent"></path><path fill="#000000" d="M43.298 26.127c-0.181-0.078-0.395-0.043-0.54 0.093-0.203 0.188-1.71 0.938-12.565 2.67-3.034 0.484-5.526 0.84-5.971 0.903-0.453-0.066-3.038-0.445-6.164-0.95C7.217 27.089 5.705 26.396 5.506 26.229c-0.145-0.144-0.362-0.184-0.544-0.105-0.187 0.077-0.308 0.26-0.308 0.461v3.664c0 0.134 0.054 0.262 0.148 0.355 0.274 0.271 0.915 0.902 12.588 2.807 3.685 0.601 6.759 1.046 6.759 1.046 0.023 0.003 0.047 0.005 0.071 0.005 0.023 0 0.047-0.002 0.069-0.005 0.03-0.004 3.016-0.424 6.568-0.997 11.519-1.854 12.291-2.574 12.581-2.846 0.102-0.094 0.159-0.227 0.159-0.365v-3.664C43.599 26.386 43.48 26.207 43.298 26.127zM42.599 29.984c-0.571 0.29-2.853 1.032-11.898 2.489-3.24 0.521-6.007 0.916-6.479 0.983-0.478-0.07-3.321-0.487-6.671-1.032C8.467 30.942 6.209 30.24 5.654 29.979v-2.599c1.209 0.421 4.238 1.153 12.243 2.448 3.456 0.559 6.252 0.964 6.252 0.964 0.046 0.005 0.095 0.007 0.141 0 0 0 2.698-0.38 6.061-0.915 8.039-1.283 11.049-2.036 12.248-2.478V29.984z" data-fill-palette-color="accent"></path><path fill="#000000" d="M43.298 31.611c-0.181-0.078-0.395-0.043-0.54 0.093-0.77 0.713-10.015 2.374-18.536 3.573-8.486-1.23-17.913-2.896-18.716-3.564-0.145-0.142-0.359-0.184-0.545-0.104-0.186 0.077-0.307 0.26-0.307 0.461v2.892c0 0.134 0.054 0.262 0.148 0.356 1.16 1.144 15.102 3.237 19.347 3.852 0.023 0.003 0.048 0.005 0.071 0.005s0.047-0.002 0.069-0.005c2.955-0.415 17.766-2.551 19.149-3.843 0.102-0.094 0.159-0.227 0.159-0.365v-2.892C43.599 31.87 43.48 31.691 43.298 31.611zM37.981 35.708c-0.122 0.023-0.243 0.035-0.36 0.035-0.545 0-0.986-0.245-1.051-0.585-0.035-0.18 0.043-0.344 0.114-0.45 0.192-0.285 0.562-0.504 0.988-0.586 0.123-0.024 0.244-0.035 0.361-0.035 0.545 0 0.988 0.245 1.054 0.581C39.168 35.092 38.65 35.578 37.981 35.708zM35.588 35.348c0.068 0.356 0.27 0.662 0.555 0.898-2.129 0.398-4.597 0.815-7.16 1.216v-1.878c2.053-0.317 4.451-0.709 6.707-1.122C35.568 34.75 35.531 35.056 35.588 35.348zM10.165 34.087c0.117 0 0.238 0.011 0.361 0.035 0.427 0.082 0.796 0.301 0.988 0.586 0.071 0.106 0.149 0.271 0.114 0.452-0.078 0.41-0.727 0.683-1.41 0.548-0.67-0.13-1.188-0.616-1.107-1.037C9.177 34.332 9.62 34.087 10.165 34.087zM12.611 35.35c0.062-0.316 0.012-0.646-0.132-0.953 2.272 0.416 4.708 0.817 6.855 1.154v1.877c-2.58-0.408-5.071-0.83-7.222-1.228C12.369 35.971 12.548 35.682 12.611 35.35zM5.654 32.846c0.69 0.244 1.737 0.511 2.979 0.784-0.256 0.23-0.439 0.52-0.504 0.853-0.062 0.327-0.004 0.648 0.134 0.945-1.292-0.288-2.222-0.541-2.608-0.732V32.846zM42.599 34.699c-0.398 0.208-1.356 0.477-2.685 0.779 0.156-0.311 0.222-0.652 0.156-0.999-0.061-0.312-0.229-0.582-0.459-0.805 1.24-0.279 2.29-0.555 2.987-0.812V34.699z" data-fill-palette-color="accent"></path><path fill="#000000" d="M29.736 14.762c2.15 0 3.906-1.54 4.126-3.502h2.312c0.276 0 0.5-0.224 0.5-0.5s-0.224-0.5-0.5-0.5h-2.337c-0.309-1.87-2.021-3.312-4.102-3.312-2.082 0-3.797 1.441-4.105 3.312h-2.332c-0.276 0-0.5 0.224-0.5 0.5s0.224 0.5 0.5 0.5h2.312C25.83 13.222 27.586 14.762 29.736 14.762zM29.736 13.762c-1.562 0-2.864-1.042-3.123-2.407h6.246C32.601 12.72 31.299 13.762 29.736 13.762z" data-fill-palette-color="accent"></path><path fill="#000000" d="M5.127 21.37l1.846-3.47c-0.957-0.509-2.147-0.146-2.657 0.812C3.807 19.669 4.171 20.859 5.127 21.37z" data-fill-palette-color="accent"></path><path fill="#000000" d="M43.884 18.713c-0.51-0.959-1.7-1.321-2.657-0.812l1.846 3.47C44.028 20.859 44.393 19.669 43.884 18.713z" data-fill-palette-color="accent"></path></g></svg></g></svg></g></svg></g></svg></g></svg></g><defs></defs></svg><rect width="375.07953" height="239.687028" fill="none" stroke="none" visibility="hidden"></rect></g></svg></g></svg>