<svg width="671" height="337" viewBox="0 0 671 337" fill="none" xmlns="http://www.w3.org/2000/svg">
<g clip-path="url(#clip0_710_2)">
<path d="M671 0H0V337H671V0Z" fill="#0C1D36"/>
<g clip-path="url(#clip1_710_2)">
<g clip-path="url(#clip2_710_2)">
<g clip-path="url(#clip3_710_2)">
<path d="M20.1667 314.386V19.68H644.967V314.386H519.507V307.848H636.386V26.2183H28.7471V307.848H145.626V314.386H20.1667Z" fill="#F9CC0B"/>
<path d="M179.686 318.282H171.365V298.999H179.515C181.75 298.999 183.76 299.386 185.544 300.16C187.329 300.934 188.721 302.024 189.723 303.43C190.724 304.837 191.232 306.415 191.246 308.166V309.05C191.246 310.818 190.755 312.402 189.773 313.801C188.795 315.201 187.416 316.295 185.637 317.083C183.857 317.875 181.874 318.275 179.686 318.282ZM179.515 302.59H177.458V314.707H179.579C181.33 314.707 182.676 314.231 183.615 313.281C184.555 312.333 185.025 310.923 185.025 309.05V308.22C185.025 306.354 184.555 304.949 183.615 304.005C182.676 303.062 181.309 302.59 179.515 302.59ZM205.582 303.848L205.475 307.992L203.546 307.884C201.705 307.884 200.523 308.327 200.001 309.212V318.282H194.143V303.951H199.638L199.831 305.795C200.813 304.392 202.185 303.691 203.945 303.691C204.571 303.691 205.117 303.743 205.582 303.848ZM213.768 303.951V318.282H207.888V303.951H213.768ZM207.547 300.257C207.547 299.621 207.848 299.1 208.451 298.695C209.049 298.29 209.83 298.088 210.793 298.088C211.756 298.088 212.539 298.29 213.142 298.695C213.745 299.1 214.046 299.621 214.046 300.257C214.046 300.894 213.745 301.414 213.142 301.819C212.539 302.228 211.756 302.432 210.793 302.432C209.83 302.432 209.049 302.228 208.451 301.819C207.848 301.414 207.547 300.894 207.547 300.257ZM221.947 303.951L224.872 312.971L227.841 303.951H234.012L227.876 318.282H221.897L215.761 303.951H221.947ZM241.935 303.951V318.282H236.062V303.951H241.935ZM235.713 300.257C235.713 299.621 236.015 299.1 236.617 298.695C237.22 298.29 238.003 298.088 238.966 298.088C239.925 298.088 240.705 298.29 241.308 298.695C241.911 299.1 242.212 299.621 242.212 300.257C242.212 300.894 241.911 301.414 241.308 301.819C240.705 302.228 239.925 302.432 238.966 302.432C238.003 302.432 237.22 302.228 236.617 301.819C236.015 301.414 235.713 300.894 235.713 300.257ZM245.43 303.951H250.918L251.11 305.633C252.411 304.338 254.202 303.691 256.484 303.691C258.44 303.691 259.901 304.136 260.869 305.025C261.837 305.918 262.338 307.26 262.371 309.05V318.282H256.499V309.24C256.499 308.513 256.306 307.98 255.922 307.639C255.543 307.299 254.847 307.13 253.836 307.13C252.693 307.13 251.843 307.475 251.288 308.166V318.282H245.43V303.951ZM264.927 311.171V311.013C264.927 309.563 265.24 308.283 265.866 307.173C266.493 306.059 267.389 305.2 268.557 304.597C269.729 303.993 271.091 303.691 272.643 303.691C274.602 303.691 276.133 304.194 277.234 305.199L277.44 303.951H282.758V317.739C282.758 319.001 282.373 320.099 281.605 321.032C280.831 321.961 279.716 322.675 278.259 323.174C276.798 323.673 275.106 323.923 273.184 323.923C271.803 323.923 270.467 323.724 269.176 323.326C267.886 322.928 266.898 322.413 266.215 321.78L268.664 319.155C269.751 320.135 271.186 320.625 272.97 320.625C275.566 320.625 276.864 319.611 276.864 317.582V317.132C275.744 318.075 274.325 318.547 272.607 318.547C270.315 318.547 268.462 317.879 267.048 316.54C265.633 315.202 264.927 313.412 264.927 311.171ZM270.799 311.29C270.799 312.465 271.089 313.394 271.668 314.078C272.246 314.761 273.058 315.103 274.102 315.103C275.364 315.103 276.285 314.781 276.864 314.138V308.111C276.299 307.457 275.39 307.13 274.138 307.13C273.093 307.13 272.278 307.486 271.689 308.198C271.096 308.907 270.799 309.938 270.799 311.29ZM308.269 313.156C308.269 312.476 307.954 311.946 307.323 311.567C306.691 311.187 305.581 310.795 303.991 310.39C302.406 309.984 301.108 309.592 300.098 309.212C296.823 307.983 295.186 306.296 295.186 304.152C295.186 303.085 295.594 302.143 296.41 301.326C297.227 300.508 298.382 299.872 299.877 299.417C301.372 298.961 303.052 298.733 304.917 298.733C306.734 298.733 308.364 298.981 309.807 299.476C311.25 299.971 312.369 300.677 313.167 301.592C313.969 302.503 314.37 303.546 314.37 304.721H308.284C308.284 303.936 307.968 303.327 307.337 302.893C306.705 302.459 305.851 302.243 304.774 302.243C303.687 302.243 302.829 302.427 302.197 302.796C301.566 303.161 301.251 303.626 301.251 304.19C301.251 304.685 301.597 305.134 302.29 305.535C302.988 305.936 304.21 306.352 305.956 306.782C307.707 307.209 309.145 307.67 310.27 308.166C313.003 309.366 314.37 311.02 314.37 313.129C314.37 314.817 313.535 316.143 311.864 317.105C310.198 318.066 307.911 318.547 305.002 318.547C302.952 318.547 301.094 318.267 299.428 317.707C297.768 317.146 296.517 316.378 295.677 315.401C294.837 314.425 294.417 313.302 294.417 312.033H300.539C300.539 313.064 300.888 313.825 301.585 314.317C302.288 314.805 303.427 315.049 305.002 315.049C306.008 315.049 306.805 314.884 307.394 314.555C307.977 314.223 308.269 313.756 308.269 313.156ZM325.175 315.103C326.001 315.103 326.639 314.933 327.09 314.593C327.54 314.253 327.761 313.78 327.752 313.172H333.24C333.24 314.741 332.502 316.031 331.026 317.039C329.551 318.045 327.647 318.547 325.317 318.547C322.584 318.547 320.429 317.893 318.854 316.584C317.279 315.278 316.491 313.47 316.491 311.16V310.97C316.491 309.523 316.84 308.247 317.537 307.14C318.24 306.03 319.251 305.177 320.57 304.58C321.894 303.987 323.46 303.691 325.268 303.691C327.711 303.691 329.652 304.206 331.09 305.237C332.523 306.271 333.24 307.67 333.24 309.435H327.752C327.752 308.693 327.515 308.124 327.04 307.726C326.565 307.329 325.927 307.13 325.125 307.13C323.607 307.13 322.721 307.867 322.47 309.343C322.385 309.809 322.342 310.453 322.342 311.274C322.342 312.713 322.57 313.711 323.025 314.268C323.476 314.825 324.193 315.103 325.175 315.103ZM341.447 297.941V305.492C342.695 304.291 344.292 303.691 346.238 303.691C348.311 303.691 349.877 304.157 350.936 305.09C351.989 306.027 352.528 307.41 352.552 309.24V318.282H346.672V309.343C346.672 308.583 346.471 308.025 346.067 307.667C345.663 307.309 344.973 307.13 343.996 307.13C342.795 307.13 341.946 307.421 341.447 308.003V318.282H335.589V297.941H341.447ZM355.086 311.74L355.071 310.986C355.071 309.554 355.434 308.28 356.161 307.162C356.892 306.049 357.94 305.192 359.307 304.591C360.673 303.991 362.28 303.691 364.126 303.691C366.94 303.691 369.158 304.354 370.781 305.681C372.399 307.009 373.209 308.817 373.209 311.106V311.263C373.209 313.498 372.395 315.27 370.767 316.578C369.139 317.891 366.938 318.547 364.161 318.547C361.485 318.547 359.335 317.936 357.712 316.714C356.089 315.492 355.214 313.834 355.086 311.74ZM360.944 310.455L360.923 311.263C360.923 312.586 361.195 313.557 361.741 314.176C362.287 314.794 363.094 315.103 364.161 315.103C366.245 315.103 367.31 313.881 367.357 311.436V310.986C367.357 308.415 366.28 307.13 364.126 307.13C362.166 307.13 361.106 308.238 360.944 310.455ZM375.074 311.74L375.052 310.986C375.052 309.554 375.417 308.28 376.148 307.162C376.88 306.049 377.928 305.192 379.295 304.591C380.661 303.991 382.265 303.691 384.107 303.691C386.925 303.691 389.144 304.354 390.762 305.681C392.385 307.009 393.197 308.817 393.197 311.106V311.263C393.197 313.498 392.383 315.27 390.755 316.578C389.127 317.891 386.923 318.547 384.142 318.547C381.466 318.547 379.316 317.936 377.693 316.714C376.075 315.492 375.202 313.834 375.074 311.74ZM380.925 310.455L380.911 311.263C380.911 312.586 381.183 313.557 381.729 314.176C382.275 314.794 383.079 315.103 384.142 315.103C386.23 315.103 387.296 313.881 387.338 311.436V310.986C387.338 308.415 386.261 307.13 384.107 307.13C382.151 307.13 381.091 308.238 380.925 310.455ZM401.959 297.941V318.282H396.079V297.941H401.959ZM415.405 314.257C415.405 313.877 415.144 313.572 414.622 313.34C414.101 313.112 413.111 312.875 411.654 312.63C410.193 312.38 408.987 312.055 408.038 311.653C407.089 311.252 406.365 310.764 405.867 310.189C405.369 309.618 405.12 308.961 405.12 308.22C405.12 306.903 405.831 305.819 407.255 304.965C408.679 304.115 410.544 303.691 412.85 303.691C415.332 303.691 417.325 304.118 418.829 304.971C420.338 305.828 421.093 306.954 421.093 308.35H415.213C415.213 307.204 414.421 306.631 412.836 306.631C412.224 306.631 411.709 306.761 411.291 307.021C410.873 307.282 410.665 307.605 410.665 307.992C410.665 308.39 410.919 308.712 411.426 308.958C411.939 309.207 412.752 309.412 413.868 309.57C414.987 309.726 415.97 309.916 416.815 310.14C419.643 310.881 421.057 312.208 421.057 314.121C421.057 315.43 420.296 316.495 418.772 317.316C417.249 318.137 415.275 318.547 412.85 318.547C411.241 318.547 409.805 318.327 408.543 317.886C407.281 317.445 406.296 316.844 405.589 316.085C404.882 315.325 404.529 314.526 404.529 313.687H410.003C410.026 314.349 410.316 314.832 410.871 315.136C411.426 315.439 412.138 315.591 413.007 315.591C413.809 315.591 414.409 315.468 414.807 315.222C415.206 314.977 415.405 314.655 415.405 314.257ZM439.422 298.999V318.282H433.343V298.999H439.422ZM443.28 303.951H448.775L448.968 305.633C450.263 304.338 452.052 303.691 454.335 303.691C456.294 303.691 457.757 304.136 458.72 305.025C459.688 305.918 460.191 307.26 460.229 309.05V318.282H454.349V309.24C454.349 308.513 454.159 307.98 453.78 307.639C453.395 307.299 452.7 307.13 451.694 307.13C450.546 307.13 449.694 307.475 449.139 308.166V318.282H443.28V303.951ZM470.635 318.282H464.763V307.054H462.037V303.951H464.763V302.812C464.763 301.181 465.394 299.916 466.656 299.015C467.918 298.115 469.691 297.665 471.974 297.665C472.809 297.665 473.725 297.757 474.721 297.941L474.736 301.223C474.38 301.143 473.901 301.103 473.298 301.103C471.523 301.103 470.635 301.688 470.635 302.855V303.951H474.301V307.054H470.635V318.282ZM475.64 311.74L475.625 310.986C475.625 309.554 475.99 308.28 476.722 307.162C477.448 306.049 478.494 305.192 479.861 304.591C481.227 303.991 482.834 303.691 484.68 303.691C487.494 303.691 489.712 304.354 491.335 305.681C492.958 307.009 493.77 308.817 493.77 311.106V311.263C493.77 313.498 492.956 315.27 491.328 316.578C489.696 317.891 487.491 318.547 484.715 318.547C482.039 318.547 479.889 317.936 478.266 316.714C476.643 315.492 475.768 313.834 475.64 311.74ZM481.498 310.455L481.476 311.263C481.476 312.586 481.749 313.557 482.295 314.176C482.841 314.794 483.648 315.103 484.715 315.103C486.799 315.103 487.864 313.881 487.911 311.436V310.986C487.911 308.415 486.834 307.13 484.68 307.13C482.72 307.13 481.659 308.238 481.498 310.455Z" fill="#F9F9F9"/>
<g clip-path="url(#clip4_710_2)">
<g clip-path="url(#clip5_710_2)">
<path d="M280.952 97.2047C280.952 94.9865 279.031 93.1883 276.662 93.1883C274.293 93.1883 272.372 94.9865 272.372 97.2047V246.398C272.372 248.616 274.293 250.414 276.662 250.414C279.031 250.414 280.952 248.616 280.952 246.398V97.2047Z" fill="#F9CC0B"/>
<g clip-path="url(#clip6_710_2)">
<g clip-path="url(#clip7_710_2)">
<g clip-path="url(#clip8_710_2)">
<g clip-path="url(#clip9_710_2)">
<path d="M366.759 166.292L359.664 150.908H326.088L319.066 166.292H303.412L336.158 100.24H349.667L382.462 166.292H366.759ZM342.888 114.268L330.306 141.655H355.445L342.888 114.268ZM429.619 166.292L429.253 161.48C425.01 165.295 418.98 167.203 411.161 167.203C404.17 167.203 398.879 165.642 395.287 162.521C391.696 159.412 389.899 154.908 389.899 149.013V117.204H404.382V148.864C404.382 155.094 407.771 158.21 414.55 158.21C421.572 158.21 426.32 156.291 428.79 152.45V117.204H443.249V166.292H429.619ZM461.633 105.276H476.093V117.204H487.479V125.379H476.093V152.766C476.093 154.648 476.58 156.005 477.556 156.835C478.531 157.666 480.269 158.08 482.774 158.08C484.432 158.08 486.114 157.931 487.821 157.634V166.162C484.536 166.855 481.367 167.203 478.311 167.203C467.193 167.203 461.633 162.526 461.633 153.175V125.379H451.051V117.204H461.633V105.276ZM494.014 141.841V141.302C494.014 136.496 495.265 132.161 497.769 128.296C500.273 124.445 503.784 121.483 508.303 119.415C512.838 117.347 518.039 116.312 523.908 116.312C532.605 116.312 539.659 118.443 545.072 122.704C550.485 126.964 553.411 132.62 553.85 139.667L553.899 142.25C553.899 147.094 552.68 151.415 550.241 155.219C547.803 159.033 544.316 161.982 539.781 164.063C535.229 166.157 529.979 167.203 524.03 167.203C514.942 167.203 507.669 164.899 502.207 160.291C496.745 155.67 494.014 149.52 494.014 141.841ZM508.498 142.25C508.498 147.304 509.863 151.256 512.594 154.104C515.342 156.965 519.153 158.396 524.03 158.396C528.906 158.396 532.703 156.947 535.417 154.048C538.147 151.137 539.513 146.889 539.513 141.302C539.513 136.336 538.106 132.402 535.295 129.504C532.498 126.605 528.704 125.156 523.908 125.156C519.177 125.156 515.422 126.581 512.643 129.43C509.88 132.291 508.498 136.564 508.498 142.25Z" fill="#F9CC0B"/>
<path d="M361.809 203.898V212.965H326.21V233.292H367.832V242.452H311.141V176.4H367.393V185.653H326.21V203.898H361.809ZM404.016 234.555C407.625 234.555 410.624 233.756 413.014 232.159C415.386 230.548 416.654 228.567 416.817 226.213H430.448C430.284 229.273 429.033 232.121 426.693 234.76C424.352 237.411 421.175 239.503 417.159 241.04C413.16 242.587 408.837 243.362 404.187 243.362C395.182 243.362 388.038 241.138 382.754 236.692C377.488 232.246 374.854 226.107 374.854 218.279V217.146C374.854 209.677 377.471 203.694 382.706 199.198C387.941 194.714 395.085 192.472 404.138 192.472C411.795 192.472 418.037 194.168 422.864 197.562C427.675 200.968 430.204 205.44 430.448 210.977H416.817C416.654 208.166 415.396 205.849 413.038 204.028C410.68 202.221 407.674 201.316 404.016 201.316C399.335 201.316 395.726 202.603 393.19 205.18C390.637 207.769 389.345 211.696 389.313 216.96V218.725C389.313 224.052 390.574 228.021 393.093 230.635C395.612 233.249 399.254 234.555 404.016 234.555ZM438.665 218.001V217.462C438.665 212.655 439.916 208.32 442.42 204.456C444.907 200.604 448.418 197.642 452.953 195.574C457.471 193.506 462.665 192.472 468.534 192.472C477.231 192.472 484.285 194.603 489.698 198.863C495.128 203.123 498.054 208.779 498.476 215.827L498.549 218.409C498.549 223.253 497.33 227.575 494.892 231.378C492.454 235.193 488.96 238.141 484.407 240.222C479.872 242.316 474.622 243.362 468.656 243.362C459.568 243.362 452.302 241.058 446.857 236.45C441.396 231.83 438.665 225.68 438.665 218.001ZM453.124 218.409C453.124 223.463 454.497 227.415 457.245 230.263C459.975 233.125 463.779 234.555 468.656 234.555C473.549 234.555 477.353 233.106 480.067 230.208C482.781 227.296 484.139 223.049 484.139 217.462C484.139 212.495 482.742 208.562 479.945 205.663C477.148 202.765 473.345 201.316 468.534 201.316C463.821 201.316 460.073 202.741 457.293 205.589C454.514 208.45 453.124 212.724 453.124 218.409ZM526.175 172.777V242.452H511.692V172.777H526.175ZM570.284 243.362C561.116 243.362 553.679 241.164 547.974 236.766C542.285 232.357 539.44 226.497 539.44 219.19V217.815C539.44 212.923 540.683 208.549 543.17 204.697C545.64 200.833 549.12 197.828 553.606 195.686C558.093 193.544 563.091 192.472 568.602 192.472C577.38 192.472 584.158 194.603 588.937 198.863C593.716 203.123 596.106 209.156 596.106 216.96V221.401H554.021C554.46 225.451 556.24 228.66 559.361 231.025C562.465 233.379 566.383 234.555 571.113 234.555C577.745 234.555 583.141 232.517 587.304 228.442L595.106 234.109C592.522 237.045 589.076 239.317 584.768 240.928C580.459 242.55 575.631 243.362 570.284 243.362ZM568.553 201.316C564.586 201.316 561.384 202.375 558.946 204.493C556.508 206.598 554.947 209.547 554.265 213.337H581.817V212.519C581.508 208.828 580.225 206.035 577.965 204.14C575.705 202.258 572.569 201.316 568.553 201.316Z" fill="#F9CC0B"/>
</g>
</g>
</g>
</g>
<g clip-path="url(#clip10_710_2)">
<g clip-path="url(#clip11_710_2)">
<path d="M239.465 223.805C239.447 223.316 239.153 222.865 238.651 222.558C238.15 222.255 237.499 222.121 236.871 222.228C236.636 222.262 213.39 225.788 203.919 226.728C202.735 226.845 201.899 227.668 202.048 228.574C202.242 229.741 202.477 232.007 202.513 232.214C203.358 235.406 207.715 235.406 209.147 235.406L210.448 235.399C210.448 235.399 230.296 234.872 231.963 234.834C239.578 234.665 239.496 224.917 239.465 223.805Z" fill="#F9F9F9"/>
<path d="M80.56 223.805C80.578 223.316 80.8718 222.865 81.3734 222.558C81.875 222.255 82.5257 222.121 83.1538 222.228C83.3888 222.262 106.634 225.788 116.106 226.728C117.29 226.845 118.126 227.668 117.977 228.574C117.783 229.741 117.548 232.007 117.512 232.214C116.666 235.406 112.31 235.406 110.878 235.406L109.576 235.399C109.576 235.399 89.7289 234.872 88.0614 234.834C80.4425 234.665 80.5283 224.917 80.56 223.805Z" fill="#F9F9F9"/>
<path d="M158.996 161.822C169.132 161.822 220.151 161.485 228.99 154.815L229.912 154.119L218.953 121.561C215.315 112.942 208.632 108.197 200.123 108.197H118.338C109.947 108.197 102.902 113.2 99.4718 121.654L88.3777 154.064L89.2183 154.756C97.3524 161.481 148.769 161.822 158.996 161.822ZM168.698 158.303C172.06 154.481 178.364 151.97 185.395 151.97C191.523 151.97 197.117 153.847 200.701 156.908C191.631 157.642 180.678 158.131 168.698 158.303ZM103.815 122.594C104.858 120.025 108.993 111.637 118.338 111.637H200.127C208.74 111.637 212.929 118.513 214.619 122.511L224.85 152.924C221.931 154.305 215.211 155.514 205.929 156.44C201.704 151.592 193.945 148.527 185.395 148.527C175.725 148.527 167.112 152.497 163.478 158.355C161.992 158.365 160.505 158.375 158.996 158.375C122.482 158.375 99.1148 155.734 93.4209 152.965L103.815 122.594Z" fill="#F9F9F9"/>
<path d="M159.244 194.525C159.348 194.535 159.461 194.542 159.565 194.542C159.673 194.542 159.782 194.535 159.89 194.525C247.133 184.873 247.133 181.725 247.133 180.035C247.133 179.769 247.052 179.504 246.894 179.263L233.59 158.954C233.102 158.203 231.959 157.838 230.924 158.072C215.812 161.505 188.753 163.554 158.526 163.554C128.723 163.554 102.21 161.505 87.6096 158.079C86.5612 157.817 85.4269 158.2 84.9298 158.943L71.391 179.253C71.2283 179.494 71.1425 179.759 71.1425 180.035C71.147 181.732 71.147 184.897 159.244 194.525Z" fill="#F9F9F9"/>
<path d="M131.041 200.864C129.839 200.692 128.646 201.346 128.452 202.286C128.249 203.223 129.089 204.108 130.318 204.259C146.446 206.257 159.696 207.72 159.696 207.72C159.8 207.731 159.908 207.737 160.017 207.737C160.121 207.737 160.229 207.731 160.329 207.72C160.329 207.72 173.144 206.35 188.861 204.428C190.091 204.277 190.931 203.392 190.737 202.455C190.538 201.515 189.34 200.892 188.147 201.026C173.922 202.768 162.082 204.056 160.017 204.277C157.916 204.043 145.665 202.672 131.041 200.864Z" fill="#F9F9F9"/>
<path d="M246.225 185.345C245.407 185.076 244.44 185.196 243.785 185.665C242.867 186.312 236.057 188.895 187.004 194.859C173.294 196.525 162.032 197.751 160.021 197.968C157.974 197.741 146.293 196.436 132.167 194.697C83.1765 188.657 76.3438 186.271 75.4445 185.696C74.7893 185.2 73.8087 185.062 72.9862 185.334C72.1412 185.599 71.5944 186.229 71.5944 186.922V199.539C71.5944 200 71.8384 200.441 72.2632 200.761C73.5014 201.694 76.398 203.867 129.148 210.427C145.8 212.496 159.692 214.029 159.692 214.029C159.795 214.039 159.904 214.046 160.012 214.046C160.116 214.046 160.225 214.039 160.324 214.029C160.46 214.015 173.953 212.569 190.005 210.596C242.059 204.211 245.547 201.732 246.858 200.795C247.319 200.472 247.576 200.014 247.576 199.539V186.922C247.585 186.236 247.048 185.62 246.225 185.345ZM243.066 198.626C240.486 199.625 230.174 202.18 189.3 207.197C174.658 208.991 162.154 210.351 160.021 210.582C157.861 210.341 145.014 208.905 129.875 207.028C88.8252 201.925 78.6213 199.508 76.1133 198.609V189.659C81.5767 191.109 95.2647 193.63 131.439 198.089C147.056 200.014 159.692 201.408 159.692 201.408C159.899 201.426 160.121 201.432 160.329 201.408C160.329 201.408 172.521 200.1 187.718 198.258C224.046 193.84 237.648 191.247 243.066 189.725V198.626Z" fill="#F9F9F9"/>
<path d="M246.225 204.229C245.407 203.96 244.44 204.08 243.785 204.549C240.305 207.004 198.527 212.724 160.021 216.852C121.673 212.617 79.0732 206.88 75.4445 204.58C74.7893 204.091 73.8222 203.946 72.9817 204.222C72.1412 204.487 71.5944 205.117 71.5944 205.809V215.768C71.5944 216.229 71.8384 216.67 72.2632 216.994C77.5052 220.933 140.509 228.14 159.692 230.258C159.795 230.268 159.908 230.275 160.012 230.275C160.116 230.275 160.225 230.268 160.324 230.258C173.678 228.829 240.608 221.473 246.858 217.025C247.319 216.701 247.576 216.243 247.576 215.768V205.809C247.585 205.12 247.048 204.504 246.225 204.229ZM222.198 218.336C221.646 218.416 221.1 218.457 220.571 218.457C218.108 218.457 216.115 217.613 215.822 216.443C215.663 215.823 216.016 215.258 216.337 214.893C217.204 213.912 218.876 213.157 220.801 212.875C221.357 212.792 221.904 212.755 222.433 212.755C224.896 212.755 226.898 213.598 227.196 214.755C227.562 216.215 225.221 217.889 222.198 218.336ZM211.384 217.097C211.691 218.323 212.604 219.376 213.892 220.189C204.271 221.56 193.118 222.996 181.536 224.376V217.909C190.814 216.818 201.65 215.468 211.845 214.046C211.294 215.038 211.126 216.091 211.384 217.097ZM96.4984 212.755C97.0271 212.755 97.5739 212.792 98.1297 212.875C100.059 213.157 101.727 213.912 102.594 214.893C102.915 215.258 103.268 215.826 103.11 216.449C102.757 217.861 99.8243 218.801 96.7379 218.336C93.7102 217.889 91.3693 216.215 91.7354 214.766C92.0336 213.598 94.0355 212.755 96.4984 212.755ZM107.552 217.104C107.832 216.016 107.606 214.879 106.955 213.822C117.222 215.255 128.23 216.635 137.933 217.796V224.259C126.274 222.854 115.017 221.401 105.297 220.031C106.458 219.242 107.267 218.247 107.552 217.104ZM76.1133 208.481C79.2314 209.321 83.9628 210.241 89.5753 211.181C88.4185 211.973 87.5915 212.972 87.2977 214.118C87.0176 215.244 87.2797 216.35 87.9033 217.372C82.0648 216.381 77.8622 215.509 76.1178 214.852V208.481H76.1133ZM243.066 214.862C241.268 215.578 236.939 216.505 230.933 217.544C231.638 216.474 231.936 215.299 231.638 214.104C231.362 213.03 230.603 212.1 229.564 211.332C235.167 210.372 239.912 209.421 243.062 208.536L243.066 214.862Z" fill="#F9F9F9"/>
<path d="M184.939 146.209C194.655 146.209 202.59 140.906 203.584 134.15H214.032C215.279 134.15 216.291 133.379 216.291 132.429C216.291 131.478 215.279 130.707 214.032 130.707H203.471C202.075 124.268 194.338 119.302 184.934 119.302C175.526 119.302 167.776 124.264 166.384 130.707H155.846C154.599 130.707 153.586 131.478 153.586 132.429C153.586 133.379 154.599 134.15 155.846 134.15H166.294C167.288 140.906 175.223 146.209 184.939 146.209ZM184.939 142.766C177.88 142.766 171.997 139.178 170.826 134.477H199.052C197.886 139.178 192.002 142.766 184.939 142.766Z" fill="#F9F9F9"/>
<path d="M73.7318 168.964L82.0738 157.015C77.7492 155.262 72.3716 156.512 70.067 159.811C67.7668 163.107 69.4117 167.204 73.7318 168.964Z" fill="#F9F9F9"/>
<path d="M248.873 159.815C246.569 156.512 241.191 155.266 236.866 157.018L245.208 168.967C249.524 167.204 251.173 163.107 248.873 159.815Z" fill="#F9F9F9"/>
</g>
</g>
</g>
</g>
</g>
</g>
</g>
</g>
<defs>
<clipPath id="clip0_710_2">
<rect width="671" height="337" fill="white"/>
</clipPath>
<clipPath id="clip1_710_2">
<rect width="624.667" height="304.64" fill="white" transform="translate(20.2333 19.4814)"/>
</clipPath>
<clipPath id="clip2_710_2">
<rect width="624.799" height="304.243" fill="white" transform="translate(20.1671 19.68)"/>
</clipPath>
<clipPath id="clip3_710_2">
<rect width="624.799" height="304.243" fill="white" transform="translate(20.1671 19.68)"/>
</clipPath>
<clipPath id="clip4_710_2">
<rect width="527.079" height="157.226" fill="white" transform="translate(69.0272 93.1883)"/>
</clipPath>
<clipPath id="clip5_710_2">
<rect width="527.079" height="157.226" fill="white" transform="translate(69.0272 93.1883)"/>
</clipPath>
<clipPath id="clip6_710_2">
<rect width="292.694" height="156.444" fill="white" transform="translate(303.412 93.5794)"/>
</clipPath>
<clipPath id="clip7_710_2">
<rect width="292.694" height="156.444" fill="white" transform="translate(303.412 93.5794)"/>
</clipPath>
<clipPath id="clip8_710_2">
<rect width="292.694" height="156.444" fill="white" transform="translate(303.412 93.5794)"/>
</clipPath>
<clipPath id="clip9_710_2">
<rect width="292.694" height="156.444" fill="white" transform="translate(303.412 93.5794)"/>
</clipPath>
<clipPath id="clip10_710_2">
<rect width="180.885" height="127.209" fill="white" transform="translate(69.0272 108.197)"/>
</clipPath>
<clipPath id="clip11_710_2">
<rect width="180.885" height="127.209" fill="white" transform="translate(69.0272 108.197)"/>
</clipPath>
</defs>
</svg>
